<mxfile host="app.diagrams.net" modified="2024-04-24T07:38:54.993Z" agent="Mozilla/5.0 (Macintosh; Intel Mac OS X 10_15_7) AppleWebKit/537.36 (KHTML, like Gecko) Chrome/124.0.0.0 Safari/537.36" etag="K9xSA4am_BpGaUI4GUkq" version="24.2.8" type="device">
  <diagram name="Page-1" id="aYZJm91bqzM_3M612xPh">
    <mxGraphModel dx="1314" dy="831" grid="1" gridSize="10" guides="1" tooltips="1" connect="1" arrows="1" fold="1" page="1" pageScale="1" pageWidth="850" pageHeight="1100" math="0" shadow="0">
      <root>
        <mxCell id="0" />
        <mxCell id="1" parent="0" />
        <mxCell id="59OiiEbDnMsajZ87g-L6-5" style="edgeStyle=orthogonalEdgeStyle;rounded=0;orthogonalLoop=1;jettySize=auto;html=1;exitX=1;exitY=0.5;exitDx=0;exitDy=0;entryX=0;entryY=0.5;entryDx=0;entryDy=0;strokeWidth=6;endArrow=block;endFill=1;" edge="1" parent="1" source="59OiiEbDnMsajZ87g-L6-1" target="59OiiEbDnMsajZ87g-L6-2">
          <mxGeometry relative="1" as="geometry" />
        </mxCell>
        <mxCell id="59OiiEbDnMsajZ87g-L6-1" value=".yaml" style="rounded=1;whiteSpace=wrap;html=1;fontSize=24;dashed=1;" vertex="1" parent="1">
          <mxGeometry x="40" y="160" width="120" height="120" as="geometry" />
        </mxCell>
        <mxCell id="59OiiEbDnMsajZ87g-L6-6" style="edgeStyle=orthogonalEdgeStyle;rounded=0;orthogonalLoop=1;jettySize=auto;html=1;exitX=1;exitY=0.5;exitDx=0;exitDy=0;entryX=0;entryY=0.5;entryDx=0;entryDy=0;endArrow=block;endFill=1;strokeWidth=6;" edge="1" parent="1" source="59OiiEbDnMsajZ87g-L6-2" target="59OiiEbDnMsajZ87g-L6-3">
          <mxGeometry relative="1" as="geometry" />
        </mxCell>
        <mxCell id="59OiiEbDnMsajZ87g-L6-2" value=".ipynb" style="rounded=1;whiteSpace=wrap;html=1;fontSize=24;" vertex="1" parent="1">
          <mxGeometry x="240" y="160" width="120" height="120" as="geometry" />
        </mxCell>
        <mxCell id="59OiiEbDnMsajZ87g-L6-7" style="edgeStyle=orthogonalEdgeStyle;rounded=0;orthogonalLoop=1;jettySize=auto;html=1;exitX=1;exitY=0.5;exitDx=0;exitDy=0;entryX=0;entryY=0.5;entryDx=0;entryDy=0;endArrow=block;endFill=1;strokeWidth=6;" edge="1" parent="1" source="59OiiEbDnMsajZ87g-L6-3" target="59OiiEbDnMsajZ87g-L6-4">
          <mxGeometry relative="1" as="geometry" />
        </mxCell>
        <mxCell id="59OiiEbDnMsajZ87g-L6-3" value="html" style="rounded=1;whiteSpace=wrap;html=1;fontSize=24;" vertex="1" parent="1">
          <mxGeometry x="440" y="160" width="120" height="120" as="geometry" />
        </mxCell>
        <mxCell id="59OiiEbDnMsajZ87g-L6-4" value="pdf" style="rounded=1;whiteSpace=wrap;html=1;fontSize=24;" vertex="1" parent="1">
          <mxGeometry x="640" y="160" width="120" height="120" as="geometry" />
        </mxCell>
        <mxCell id="59OiiEbDnMsajZ87g-L6-8" value="nbprint" style="text;html=1;align=center;verticalAlign=middle;whiteSpace=wrap;rounded=0;fontSize=18;" vertex="1" parent="1">
          <mxGeometry x="170" y="170" width="60" height="30" as="geometry" />
        </mxCell>
        <mxCell id="59OiiEbDnMsajZ87g-L6-9" value="nbconvert" style="text;html=1;align=center;verticalAlign=middle;whiteSpace=wrap;rounded=0;fontSize=16;" vertex="1" parent="1">
          <mxGeometry x="370" y="170" width="60" height="30" as="geometry" />
        </mxCell>
        <mxCell id="59OiiEbDnMsajZ87g-L6-10" value="browser" style="text;html=1;align=center;verticalAlign=middle;whiteSpace=wrap;rounded=0;fontSize=16;" vertex="1" parent="1">
          <mxGeometry x="570" y="170" width="60" height="30" as="geometry" />
        </mxCell>
      </root>
    </mxGraphModel>
  </diagram>
</mxfile>
